<svg preserveAspectRatio="none" overflow="visible" style="display: block;" width="24" height="24" viewBox="0 0 24 24" fill="none" xmlns="http://www.w3.org/2000/svg">
<g id="material-symbols:volume-down-rounded">
<path id="Vector" d="M11 14.9999H8C7.71667 14.9999 7.47933 14.9039 7.288 14.7119C7.09667 14.5199 7.00067 14.2826 7 13.9999V9.99994C7 9.71661 7.096 9.47927 7.288 9.28794C7.48 9.09661 7.71733 9.00061 8 8.99994H11L14.3 5.69994C14.6167 5.38327 14.9793 5.31227 15.388 5.48694C15.7967 5.66161 16.0007 5.97427 16 6.42494V17.5749C16 18.0249 15.796 18.3376 15.388 18.5129C14.98 18.6883 14.6173 18.6173 14.3 18.2999L11 14.9999ZM20.5 11.9999C20.5 12.6999 20.3417 13.3626 20.025 13.9879C19.7083 14.6133 19.2917 15.1256 18.775 15.5249C18.6083 15.6249 18.4377 15.6293 18.263 15.5379C18.0883 15.4466 18.0007 15.3006 18 15.0999V8.84994C18 8.64994 18.0877 8.50427 18.263 8.41294C18.4383 8.32161 18.609 8.32561 18.775 8.42494C19.2917 8.84161 19.7083 9.36661 20.025 9.99994C20.3417 10.6333 20.5 11.2999 20.5 11.9999Z" fill="#9F9F9F"/>
</g>
</svg>
